<svg width="127" height="36" viewBox="0 0 127 36" fill="none" xmlns="http://www.w3.org/2000/svg">
<path d="M9.89447 27.0757C13.645 27.0757 16.574 25.254 18.11 22.0749L14.2165 20.1104C13.395 21.7535 11.7876 22.6822 9.85875 22.6822C7.32266 22.6822 5.50096 21.1105 5.14376 18.753H18.2886V17.2528C18.2886 12.4307 15.0381 8.28719 9.43011 8.28719C3.96502 8.28719 0.250185 12.5021 0.250185 17.61C0.250185 23.2537 4.39365 27.0757 9.89447 27.0757ZM5.35808 15.9312C5.71528 14.1452 7.17978 12.7164 9.39439 12.7164C11.5376 12.7164 13.0378 14.1095 13.2521 15.9312H5.35808ZM28.2538 27.0757C30.6827 27.0757 32.6116 26.1113 33.8617 24.5396V26.6113H38.6839V17.7172C38.6839 12.3949 34.6118 8.39435 29.0753 8.39435C23.6459 8.39435 19.5025 12.645 19.5025 17.7172C19.5025 22.8608 23.1101 27.0757 28.2538 27.0757ZM29.0753 22.325C26.4678 22.325 24.5746 20.2532 24.5746 17.7529C24.5746 15.2525 26.4678 13.1808 29.0753 13.1808C31.6828 13.1808 33.6117 15.2525 33.6117 17.7529C33.6117 20.2532 31.6828 22.325 29.0753 22.325ZM48.2517 27.1114C52.288 27.1114 55.7528 24.8253 55.7528 21.2534C55.7528 14.6096 46.0371 16.8956 46.0371 14.038C46.0371 13.1093 46.9658 12.5021 48.216 12.5021C49.6448 12.5021 50.9307 13.1093 51.5022 14.3952L55.2527 12.2878C54.1811 10.2518 51.8951 8.46579 48.1088 8.46579C43.751 8.46579 40.9649 10.9662 40.9649 14.1452C40.9649 20.9676 50.6806 18.503 50.6806 21.3606C50.6806 22.3964 49.6448 23.0394 48.0017 23.0394C46.2157 23.0394 45.0369 22.4321 44.2868 21.0034L40.5363 23.1108C42.0008 25.7541 44.5726 27.1114 48.2517 27.1114ZM66.1812 35.2555C72.0035 35.2555 75.9684 31.2192 75.9684 25.0397V8.93014H70.8248V17.61C70.8248 20.1461 69.1102 22.0392 66.8242 22.0392C64.3238 22.0392 62.9308 20.289 62.9308 17.7172V8.93014H57.93V17.8958C57.93 23.1465 60.4304 26.8256 66.1812 26.8256C68.3601 26.8256 69.9318 26.0398 70.8962 24.611V25.1111C70.8962 28.3973 69.146 30.6119 66.1098 30.6119C63.8238 30.6119 62.2521 29.4332 61.4663 27.8972L57.2871 30.1833C58.8945 33.4695 61.9663 35.2555 66.1812 35.2555ZM87.8446 22.1821C85.2371 22.1821 83.9512 19.8603 83.9512 17.1456V8.93014H78.879V17.7172C78.879 22.8965 81.9509 27.0757 87.8446 27.0757C93.7741 27.0757 96.8459 22.8965 96.8459 17.7172V8.93014H91.7738V17.1099C91.7738 19.8603 90.4521 22.1821 87.8446 22.1821ZM108.504 13.3594C111.397 13.3594 112.719 15.6811 112.719 18.3958V26.6113H117.791V17.7886C117.791 12.6093 114.683 8.43007 108.504 8.43007C102.324 8.43007 99.2883 12.645 99.2883 17.7886V26.6113H104.36V18.3958C104.36 15.6811 105.646 13.3594 108.504 13.3594ZM123.675 6.2869C125.389 6.2869 126.782 4.89383 126.782 3.14358C126.782 1.42904 125.389 0.00025174 123.675 0.00025174C121.96 0.00025174 120.531 1.42904 120.531 3.14358C120.531 4.89383 121.96 6.2869 123.675 6.2869ZM121.139 8.93014V26.6113H126.211V8.93014H121.139Z" fill="black"/>
</svg>
